PathFileType  4	(X/Y/Z) /root/TVB/SAM4Dcap/opencap/output/Data/subject2_Session0/MarkerData/mmpose_0.8/2-cameras/PreAugmentation
DataRate	CameraRate	NumFrames	NumMarkers	Units	OrigDataRate	OrigDataStartFrame	OrigNumFrames
60.0	60.0	18	20	m	60.0	39	152
Frame#	Time	Neck			RShoulder			RElbow			RWrist			LShoulder			LElbow			LWrist			midHip			RHip			RKnee			RAnkle			LHip			LKnee			LAnkle			LBigToe			LSmallToe			LHeel			RBigToe			RSmallToe			RHeel			
		X1	Y1	Z1	X2	Y2	Z2	X3	Y3	Z3	X4	Y4	Z4	X5	Y5	Z5	X6	Y6	Z6	X7	Y7	Z7	X8	Y8	Z8	X9	Y9	Z9	X10	Y10	Z10	X11	Y11	Z11	X12	Y12	Z12	X13	Y13	Z13	X14	Y14	Z14	X15	Y15	Z15	X16	Y16	Z16	X17	Y17	Z17	X18	Y18	Z18	X19	Y19	Z19	X20	Y20	Z20	

39	0.6333333	0.9836200	1.0815900	-0.6079100	0.9955700	1.0780800	-0.4374700	0.9464700	0.7748300	-0.3488000	0.9885200	0.4816200	-0.2677800	0.9809700	1.0847300	-0.7781500	0.9390600	0.7799500	-0.8415900	0.9969600	0.4945100	-0.9074300	1.0120800	0.5535400	-0.5986400	1.0198200	0.5549700	-0.4756800	0.9675900	0.0808500	-0.4483900	0.9030000	-0.4213900	-0.3883400	1.0094200	0.5534200	-0.7215600	0.9522000	0.0687100	-0.7680100	0.9027800	-0.4148500	-0.8163100	1.0691600	-0.4784300	-0.8621500	1.0623300	-0.4762000	-0.8613100	0.8796300	-0.4561700	-0.7993800	1.0829400	-0.4733800	-0.3681900	1.0760400	-0.4722800	-0.3683800	0.8658100	-0.4692100	-0.3942100
40	0.6500000	0.9838100	1.0810600	-0.6082800	0.9956200	1.0769900	-0.4372200	0.9450900	0.7768700	-0.3485800	0.9872400	0.4820800	-0.2683500	0.9813500	1.0846300	-0.7790600	0.9412400	0.7783200	-0.8420400	0.9990700	0.4962900	-0.9086800	1.0118500	0.5530600	-0.5972000	1.0196900	0.5550600	-0.4724300	0.9678100	0.0790500	-0.4476900	0.9043100	-0.4221800	-0.3887700	1.0088300	0.5528400	-0.7220700	0.9515900	0.0668400	-0.7699300	0.9022300	-0.4153600	-0.8181200	1.0738900	-0.4755300	-0.8565600	1.0679500	-0.4734100	-0.8553300	0.8784100	-0.4572400	-0.8024700	1.0823300	-0.4720400	-0.3684200	1.0750800	-0.4709800	-0.3685900	0.8674700	-0.4677200	-0.3935100
41	0.6666667	0.9843400	1.0814400	-0.6079700	0.9960700	1.0782700	-0.4364400	0.9454400	0.7758400	-0.3481900	0.9896200	0.4813600	-0.2686300	0.9819900	1.0841200	-0.7791100	0.9398600	0.7759600	-0.8403100	0.9969000	0.4941600	-0.9065500	1.0141200	0.5496900	-0.5981700	1.0221000	0.5519700	-0.4725300	0.9681200	0.0794500	-0.4467800	0.9052000	-0.4237200	-0.3879200	1.0110700	0.5487000	-0.7238200	0.9525900	0.0673000	-0.7676000	0.9047400	-0.4131800	-0.8146300	1.0612100	-0.4790600	-0.8679000	1.0543100	-0.4763300	-0.8667500	0.8841000	-0.4527300	-0.7958900	1.0806700	-0.4745000	-0.3681500	1.0735000	-0.4734700	-0.3681800	0.8672800	-0.4699300	-0.3930300
42	0.6833333	0.9841800	1.0805100	-0.6084600	0.9964800	1.0768600	-0.4376200	0.9469300	0.7775300	-0.3486100	0.9883200	0.4818700	-0.2684500	0.9809100	1.0837500	-0.7792200	0.9396600	0.7791600	-0.8402200	0.9987600	0.4959800	-0.9087700	1.0131500	0.5523200	-0.5972300	1.0199500	0.5538300	-0.4723300	0.9668900	0.0792800	-0.4461900	0.9046800	-0.4260500	-0.3885000	1.0115100	0.5518900	-0.7219900	0.9529100	0.0662900	-0.7690500	0.9037200	-0.4145300	-0.8172800	1.0743500	-0.4750500	-0.8586900	1.0683900	-0.4727300	-0.8574000	0.8795800	-0.4559700	-0.8007900	1.0843300	-0.4736000	-0.3687700	1.0775400	-0.4725300	-0.3688400	0.8682200	-0.4725100	-0.3937000
43	0.7000000	0.9833200	1.0808100	-0.6079800	0.9954300	1.0772000	-0.4361800	0.9459800	0.7767900	-0.3487900	0.9896700	0.4822800	-0.2675500	0.9806000	1.0839700	-0.7796100	0.9388800	0.7778700	-0.8415000	0.9978300	0.4911100	-0.9094300	1.0121500	0.5538600	-0.5976800	1.0192700	0.5555600	-0.4731200	0.9676400	0.0813800	-0.4486000	0.9047900	-0.4257200	-0.3895700	1.0102800	0.5536000	-0.7222400	0.9547000	0.0695500	-0.7700200	0.9030500	-0.4143600	-0.8159100	1.0753500	-0.4757200	-0.8578800	1.0685400	-0.4737500	-0.8569200	0.8792800	-0.4564000	-0.7998300	1.0835600	-0.4741700	-0.3681500	1.0767600	-0.4732600	-0.3681900	0.8679500	-0.4730900	-0.3954500
44	0.7166667	0.9830800	1.0808900	-0.6080600	0.9947100	1.0773100	-0.4371000	0.9462100	0.7774400	-0.3491800	0.9894400	0.4827900	-0.2681200	0.9806700	1.0840400	-0.7787500	0.9427600	0.7795500	-0.8411400	0.9987600	0.4939100	-0.9074200	1.0138400	0.5535900	-0.5989600	1.0201400	0.5556900	-0.4741800	0.9666900	0.0799700	-0.4488100	0.9039300	-0.4257400	-0.3887300	1.0125800	0.5531000	-0.7236100	0.9530300	0.0683000	-0.7697300	0.9041000	-0.4145300	-0.8160700	1.0749900	-0.4770400	-0.8584200	1.0683900	-0.4749600	-0.8574300	0.8800800	-0.4567200	-0.8003300	1.0837300	-0.4731900	-0.3691300	1.0768800	-0.4723700	-0.3692900	0.8662100	-0.4734700	-0.3938100
45	0.7333333	0.9833700	1.0806700	-0.6081500	0.9951200	1.0770000	-0.4367500	0.9442700	0.7793400	-0.3506900	0.9896300	0.4832600	-0.2678000	0.9810000	1.0837500	-0.7791600	0.9406900	0.7787700	-0.8407400	0.9989200	0.4981500	-0.9069100	1.0131300	0.5573300	-0.5975700	1.0219000	0.5590100	-0.4731500	0.9669700	0.0805200	-0.4482800	0.9037500	-0.4238700	-0.3888800	1.0100000	0.5566000	-0.7220900	0.9521300	0.0659400	-0.7706000	0.9031100	-0.4155200	-0.8173500	1.0639300	-0.4788300	-0.8629600	1.0568700	-0.4763700	-0.8621300	0.8793500	-0.4565200	-0.8007200	1.0844100	-0.4724200	-0.3699700	1.0773200	-0.4715500	-0.3698700	0.8674700	-0.4711800	-0.3952000
46	0.7500000	0.9840600	1.0804300	-0.6084100	0.9961500	1.0768400	-0.4365700	0.9464300	0.7779900	-0.3494300	0.9894100	0.4825300	-0.2685100	0.9812800	1.0835800	-0.7801800	0.9388200	0.7790200	-0.8413600	0.9958900	0.4953200	-0.9083200	1.0143700	0.5484300	-0.5978700	1.0221100	0.5495400	-0.4724900	0.9712300	0.0794000	-0.4473800	0.9052500	-0.4246600	-0.3889900	1.0120000	0.5484900	-0.7234600	0.9456800	0.0642100	-0.7685500	0.9011600	-0.4173300	-0.8165700	1.0707300	-0.4775100	-0.8609900	1.0648100	-0.4753100	-0.8593200	0.8781700	-0.4584100	-0.7992700	1.0857600	-0.4723300	-0.3710500	1.0787000	-0.4714700	-0.3708400	0.8687400	-0.4714000	-0.3954500
47	0.7666667	0.9842100	1.0816000	-0.6078700	0.9966400	1.0776800	-0.4365500	0.9464800	0.7758900	-0.3489100	0.9909000	0.4815400	-0.2673300	0.9811100	1.0850600	-0.7790700	0.9423500	0.7780600	-0.8427300	1.0019900	0.4921600	-0.9087100	1.0126500	0.5515200	-0.5982600	1.0202600	0.5529300	-0.4737300	0.9666800	0.0800800	-0.4473700	0.9027900	-0.4273400	-0.3880600	1.0104800	0.5509600	-0.7226900	0.9533300	0.0674500	-0.7686200	0.9020400	-0.4165300	-0.8158700	1.0751700	-0.4752800	-0.8581100	1.0689600	-0.4731600	-0.8569300	0.8762200	-0.4580300	-0.7992400	1.0851300	-0.4730000	-0.3683400	1.0785500	-0.4720700	-0.3684200	0.8662700	-0.4736200	-0.3944000
48	0.7833333	0.9841900	1.0809400	-0.6077300	0.9958300	1.0775700	-0.4361600	0.9450800	0.7767100	-0.3491900	0.9886300	0.4823500	-0.2681300	0.9819900	1.0839300	-0.7792900	0.9410500	0.7755200	-0.8409100	1.0028200	0.4904000	-0.9079800	1.0118500	0.5519200	-0.5985900	1.0195300	0.5527600	-0.4739500	0.9662200	0.0784200	-0.4476700	0.9054800	-0.4253700	-0.3876900	1.0095300	0.5517800	-0.7231900	0.9512400	0.0654600	-0.7685100	0.9025300	-0.4152100	-0.8182300	1.0732500	-0.4776100	-0.8583800	1.0664300	-0.4756300	-0.8578800	0.8768400	-0.4566700	-0.8026700	1.0835200	-0.4732900	-0.3696400	1.0765200	-0.4724000	-0.3695300	0.8691100	-0.4717300	-0.3933000
49	0.8000000	0.9848300	1.0812500	-0.6083600	0.9962900	1.0779000	-0.4371300	0.9463500	0.7765900	-0.3492500	0.9877300	0.4810800	-0.2678800	0.9828600	1.0840300	-0.7793900	0.9440300	0.7778800	-0.8407700	1.0017600	0.4958200	-0.9077600	1.0132300	0.5468500	-0.5980100	1.0193800	0.5480700	-0.4737800	0.9644100	0.0793000	-0.4468400	0.9025800	-0.4272900	-0.3888600	1.0124400	0.5465700	-0.7221900	0.9550800	0.0686500	-0.7688400	0.9021700	-0.4134800	-0.8171600	1.0699200	-0.4772900	-0.8617200	1.0627800	-0.4749800	-0.8614100	0.8776100	-0.4537200	-0.8004900	1.0834200	-0.4719500	-0.3692100	1.0765500	-0.4711400	-0.3691300	0.8662000	-0.4735700	-0.3958700
50	0.8166667	0.9841000	1.0814600	-0.6081100	0.9961200	1.0783200	-0.4365700	0.9455600	0.7765100	-0.3492500	0.9883200	0.4813800	-0.2680800	0.9815100	1.0841200	-0.7795600	0.9396400	0.7777400	-0.8404200	0.9990600	0.4914100	-0.9088100	1.0132400	0.5480900	-0.5983200	1.0211400	0.5488100	-0.4742200	0.9661100	0.0780500	-0.4471900	0.9033900	-0.4259600	-0.3893800	1.0105500	0.5487200	-0.7225700	0.9525600	0.0683900	-0.7686000	0.9021000	-0.4149500	-0.8181700	1.0736600	-0.4753600	-0.8576400	1.0682800	-0.4728700	-0.8561600	0.8763300	-0.4557100	-0.8018100	1.0807800	-0.4715000	-0.3665100	1.0739000	-0.4705400	-0.3665100	0.8680100	-0.4709700	-0.3977600
51	0.8333333	0.9845400	1.0816200	-0.6074100	0.9961200	1.0780500	-0.4357300	0.9473700	0.7764800	-0.3475200	0.9882600	0.4819500	-0.2686500	0.9822800	1.0846900	-0.7788300	0.9416900	0.7771900	-0.8405200	1.0005900	0.4933400	-0.9080800	1.0137800	0.5475500	-0.5977000	1.0201200	0.5486400	-0.4731000	0.9634500	0.0780700	-0.4460200	0.9042500	-0.4283200	-0.3887200	1.0127700	0.5472200	-0.7221600	0.9539300	0.0685700	-0.7684700	0.9024200	-0.4148200	-0.8187600	1.0756500	-0.4762100	-0.8567300	1.0697300	-0.4738400	-0.8558200	0.8744000	-0.4575100	-0.8039800	1.0852000	-0.4727000	-0.3684100	1.0784500	-0.4718300	-0.3684500	0.8677600	-0.4742000	-0.3961600
52	0.8500000	0.9838100	1.0817800	-0.6072900	0.9957100	1.0777500	-0.4365000	0.9473200	0.7772400	-0.3481700	0.9886900	0.4817000	-0.2684800	0.9810700	1.0854600	-0.7779100	0.9397700	0.7777200	-0.8405900	0.9969800	0.4917700	-0.9080800	1.0112000	0.5492800	-0.5994400	1.0197500	0.5507700	-0.4758400	0.9681500	0.0789400	-0.4490400	0.9043300	-0.4241800	-0.3883700	1.0078300	0.5488800	-0.7230400	0.9487600	0.0673000	-0.7669700	0.9016700	-0.4147200	-0.8170100	1.0594400	-0.4809200	-0.8684300	1.0526900	-0.4782600	-0.8670300	0.8792200	-0.4552800	-0.7996300	1.0876300	-0.4717600	-0.3703100	1.0807900	-0.4709200	-0.3701900	0.8682100	-0.4704400	-0.3946600
53	0.8666667	0.9835200	1.0817200	-0.6077700	0.9953100	1.0778900	-0.4365800	0.9467000	0.7757200	-0.3484700	0.9890400	0.4811400	-0.2688400	0.9809800	1.0852000	-0.7788800	0.9404400	0.7763200	-0.8403500	0.9978000	0.4923000	-0.9073100	1.0110200	0.5500900	-0.5986800	1.0191800	0.5511500	-0.4752300	0.9683400	0.0787900	-0.4478600	0.9031300	-0.4275300	-0.3897800	1.0082300	0.5498500	-0.7221800	0.9479500	0.0675300	-0.7672800	0.9009300	-0.4157600	-0.8164700	1.0815500	-0.4754400	-0.8549800	1.0627000	-0.4758500	-0.8612900	0.8768700	-0.4580000	-0.8001100	1.0885700	-0.4721500	-0.3691100	1.0821400	-0.4712200	-0.3690800	0.8660700	-0.4743700	-0.3963600
54	0.8833333	0.9840000	1.0816200	-0.6074700	0.9963400	1.0784800	-0.4357700	0.9463800	0.7749600	-0.3481100	0.9899800	0.4812500	-0.2671600	0.9808400	1.0843400	-0.7789300	0.9381500	0.7792000	-0.8405700	0.9951600	0.4942800	-0.9073300	1.0133000	0.5530000	-0.5980000	1.0214100	0.5550900	-0.4740700	0.9705400	0.0801100	-0.4471600	0.9043200	-0.4241700	-0.3886800	1.0105100	0.5520500	-0.7219100	0.9495400	0.0683400	-0.7665100	0.9019200	-0.4151100	-0.8171500	1.0718500	-0.4776200	-0.8592500	1.0649500	-0.4754800	-0.8584400	0.8768100	-0.4566100	-0.8021400	1.0854800	-0.4707300	-0.3682900	1.0787400	-0.4699100	-0.3681400	0.8673600	-0.4699400	-0.3962500
55	0.9000000	0.9846900	1.0816100	-0.6063900	0.9960500	1.0783800	-0.4343700	0.9463500	0.7772000	-0.3486700	0.9890600	0.4809500	-0.2684500	0.9827200	1.0844100	-0.7782900	0.9394700	0.7803600	-0.8400300	0.9956400	0.4924800	-0.9076700	1.0124200	0.5545700	-0.5992700	1.0202500	0.5563100	-0.4761600	0.9687400	0.0809300	-0.4487600	0.9039800	-0.4233000	-0.3887200	1.0098400	0.5538000	-0.7223200	0.9485300	0.0674600	-0.7663000	0.9020200	-0.4149100	-0.8168900	1.0610800	-0.4819200	-0.8678900	1.0541200	-0.4794300	-0.8666300	0.8794900	-0.4551400	-0.7988800	1.0871500	-0.4722100	-0.3701800	1.0804600	-0.4713600	-0.3701400	0.8672200	-0.4700800	-0.3948400
56	0.9166667	0.9841100	1.0820300	-0.6067100	0.9956600	1.0784400	-0.4351900	0.9466800	0.7765100	-0.3487600	0.9894500	0.4827600	-0.2676900	0.9820700	1.0852200	-0.7781900	0.9398400	0.7787600	-0.8402800	0.9991200	0.4939700	-0.9088100	1.0127600	0.5553700	-0.5979500	1.0209400	0.5567600	-0.4746700	0.9665400	0.0799700	-0.4480900	0.9039500	-0.4267800	-0.3867700	1.0097900	0.5548100	-0.7211900	0.9511500	0.0681500	-0.7679400	0.9034000	-0.4148500	-0.8157200	1.0716000	-0.4781600	-0.8623600	1.0651600	-0.4758300	-0.8612600	0.8798100	-0.4562000	-0.7984500	1.0858700	-0.4741300	-0.3689000	1.0793700	-0.4732700	-0.3689500	0.8669500	-0.4734000	-0.3927000
